<svg width="100" height="100" viewBox="0 0 100 100" fill="none" xmlns="http://www.w3.org/2000/svg">
<g clip-path="url(#clip0_178_40)">
<path fill-rule="evenodd" clip-rule="evenodd" d="M85.4091 38.5932C85.4091 58.0258 69.6558 73.7791 50.2231 73.7791C30.7904 73.7791 15.0371 58.0258 15.0371 38.5932C15.0371 37.6457 15.0746 36.7069 15.1481 35.7783H85.2981C85.3716 36.7069 85.4091 37.6457 85.4091 38.5932ZM84.3892 30.1486H16.057C19.2017 17.3826 29.3144 7.35895 42.1303 4.34238C45 13.5 58.0325 26.093 77.5498 16.426C80.7615 20.3804 83.1321 25.0453 84.3892 30.1486Z" fill="#3A3A3A"/>
<path fill-rule="evenodd" clip-rule="evenodd" d="M50.2231 95.5951C73.5423 95.5951 92.4463 76.6911 92.4463 53.3719V43.5198H8V53.3719C8 76.6911 26.9039 95.5951 50.2231 95.5951V95.5951Z" fill="black"/>
</g>
<defs>
<clipPath id="clip0_178_40">
<rect width="100" height="100" fill="white"/>
</clipPath>
</defs>
</svg>
